REM DIRINDEX 1\2\5,1\2\6,1\3\7,1\3\8,1\4\9,1\4\10
REM DIRNAME cjc079,folder01,folder02,folder03,folder04,folder05,folder06,folder07,folder08,folder09
TITLE ""
FILE "Track34.mp3" MP3
  TRACK 01 AUDIO
    TITLE "10:cjc079_1278"
    INDEX 01 00:00:00
  TRACK 02 AUDIO
    TITLE "10:cjc079_1279"
    INDEX 01 00:02:22
  TRACK 03 AUDIO
    TITLE "9:cjc079_1280"
    INDEX 01 00:04:33
  TRACK 04 AUDIO
    TITLE "0:"
    INDEX 01 00:05:65
  TRACK 05 AUDIO
    TITLE "9:cjc079_1281"
    INDEX 01 00:06:33
  TRACK 06 AUDIO
    TITLE "0:"
    INDEX 01 00:07:66
  TRACK 07 AUDIO
    TITLE "10:cjc079_1282"
    INDEX 01 00:09:36
  TRACK 08 AUDIO
    TITLE "9:cjc079_1283"
    INDEX 01 00:11:48
  TRACK 09 AUDIO
    TITLE "0:"
    INDEX 01 00:13:16
  TRACK 10 AUDIO
    TITLE "9:cjc079_1284"
    INDEX 01 00:13:61
  TRACK 11 AUDIO
    TITLE "0:"
    INDEX 01 00:15:28
  TRACK 12 AUDIO
    TITLE "10:cjc079_1285"
    INDEX 01 00:17:00
  TRACK 13 AUDIO
    TITLE "9:cjc079_1286"
    INDEX 01 00:19:18
  TRACK 14 AUDIO
    TITLE "0:"
    INDEX 01 00:20:45
  TRACK 15 AUDIO
    TITLE "9:cjc079_1287"
    INDEX 01 00:21:17
  TRACK 16 AUDIO
    TITLE "0:"
    INDEX 01 00:22:44
  TRACK 17 AUDIO
    TITLE "10:cjc079_1288"
    INDEX 01 00:24:18
  TRACK 18 AUDIO
    TITLE "9:cjc079_1289"
    INDEX 01 00:26:13
  TRACK 19 AUDIO
    TITLE "0:"
    INDEX 01 00:27:49
  TRACK 20 AUDIO
    TITLE "9:cjc079_1290"
    INDEX 01 00:28:19
  TRACK 21 AUDIO
    TITLE "0:"
    INDEX 01 00:29:56
  TRACK 22 AUDIO
    TITLE "10:cjc079_1291"
    INDEX 01 00:31:27
  TRACK 23 AUDIO
    TITLE "9:cjc079_1292"
    INDEX 01 00:33:44
  TRACK 24 AUDIO
    TITLE "0:"
    INDEX 01 00:34:73
  TRACK 25 AUDIO
    TITLE "9:cjc079_1293"
    INDEX 01 00:35:45
  TRACK 26 AUDIO
    TITLE "0:"
    INDEX 01 00:36:74
  TRACK 27 AUDIO
    TITLE "10:cjc079_1294"
    INDEX 01 00:38:45
  TRACK 28 AUDIO
    TITLE "9:cjc079_1295"
    INDEX 01 00:40:48
  TRACK 29 AUDIO
    TITLE "0:"
    INDEX 01 00:42:04
  TRACK 30 AUDIO
    TITLE "9:cjc079_1296"
    INDEX 01 00:42:51
  TRACK 31 AUDIO
    TITLE "0:"
    INDEX 01 00:44:07
  TRACK 32 AUDIO
    TITLE "10:cjc079_1297"
    INDEX 01 00:45:57
  TRACK 33 AUDIO
    TITLE "9:cjc079_1298"
    INDEX 01 00:47:72
  TRACK 34 AUDIO
    TITLE "0:"
    INDEX 01 00:49:39
  TRACK 35 AUDIO
    TITLE "9:cjc079_1299"
    INDEX 01 00:50:13
  TRACK 36 AUDIO
    TITLE "0:"
    INDEX 01 00:51:56
  TRACK 37 AUDIO
    TITLE "10:cjc079_1300"
    INDEX 01 00:53:29
  TRACK 38 AUDIO
    TITLE "9:cjc079_1301"
    INDEX 01 00:55:38
  TRACK 39 AUDIO
    TITLE "0:"
    INDEX 01 00:57:03
  TRACK 40 AUDIO
    TITLE "9:cjc079_1302"
    INDEX 01 00:57:52
  TRACK 41 AUDIO
    TITLE "0:"
    INDEX 01 00:59:16
  TRACK 42 AUDIO
    TITLE "10:cjc079_1303"
    INDEX 01 01:00:70
  TRACK 43 AUDIO
    TITLE "9:cjc079_1304"
    INDEX 01 01:02:73
  TRACK 44 AUDIO
    TITLE "0:"
    INDEX 01 01:04:31
  TRACK 45 AUDIO
    TITLE "9:cjc079_1305"
    INDEX 01 01:04:72
  TRACK 46 AUDIO
    TITLE "0:"
    INDEX 01 01:06:30
  TRACK 47 AUDIO
    TITLE "10:cjc079_1306"
    INDEX 01 01:08:01
  TRACK 48 AUDIO
    TITLE "9:cjc079_1307"
    INDEX 01 01:10:22
  TRACK 49 AUDIO
    TITLE "0:"
    INDEX 01 01:11:66
  TRACK 50 AUDIO
    TITLE "9:cjc079_1308"
    INDEX 01 01:12:40
  TRACK 51 AUDIO
    TITLE "0:"
    INDEX 01 01:14:10
  TRACK 52 AUDIO
    TITLE "10:cjc079_1309"
    INDEX 01 01:15:56
  TRACK 53 AUDIO
    TITLE "9:cjc079_1310"
    INDEX 01 01:17:71
  TRACK 54 AUDIO
    TITLE "0:"
    INDEX 01 01:19:54
  TRACK 55 AUDIO
    TITLE "9:cjc079_1311"
    INDEX 01 01:20:30
  TRACK 56 AUDIO
    TITLE "0:"
    INDEX 01 01:22:11
  TRACK 57 AUDIO
    TITLE "10:cjc079_1312"
    INDEX 01 01:23:63
  TRACK 58 AUDIO
    TITLE "9:cjc079_1313"
    INDEX 01 01:26:07
  TRACK 59 AUDIO
    TITLE "0:"
    INDEX 01 01:27:50
  TRACK 60 AUDIO
    TITLE "9:cjc079_1314"
    INDEX 01 01:28:22
  TRACK 61 AUDIO
    TITLE "0:"
    INDEX 01 01:29:64
  TRACK 62 AUDIO
    TITLE "10:cjc079_1315"
    INDEX 01 01:31:38
  TRACK 63 AUDIO
    TITLE "9:cjc079_1316"
    INDEX 01 01:33:54
  TRACK 64 AUDIO
    TITLE "0:"
    INDEX 01 01:35:00
  TRACK 65 AUDIO
    TITLE "9:cjc079_1317"
    INDEX 01 01:35:39
  TRACK 66 AUDIO
    TITLE "0:"
    INDEX 01 01:36:62
  TRACK 67 AUDIO
    TITLE "10:cjc079_1318"
    INDEX 01 01:38:28
  TRACK 68 AUDIO
    TITLE "9:cjc079_1319"
    INDEX 01 01:40:21
  TRACK 69 AUDIO
    TITLE "0:"
    INDEX 01 01:41:44
  TRACK 70 AUDIO
    TITLE "9:cjc079_1320"
    INDEX 01 01:42:16
  TRACK 71 AUDIO
    TITLE "0:"
    INDEX 01 01:43:41
  TRACK 72 AUDIO
    TITLE "10:cjc079_1321"
    INDEX 01 01:45:12
  TRACK 73 AUDIO
    TITLE "9:cjc079_1322"
    INDEX 01 01:47:27
  TRACK 74 AUDIO
    TITLE "0:"
    INDEX 01 01:48:52
  TRACK 75 AUDIO
    TITLE "9:cjc079_1323"
    INDEX 01 01:49:26
  TRACK 76 AUDIO
    TITLE "0:"
    INDEX 01 01:50:49
  TRACK 77 AUDIO
    TITLE "10:cjc079_1324"
    INDEX 01 01:52:24
  TRACK 78 AUDIO
    TITLE "9:cjc079_1325"
    INDEX 01 01:54:29
  TRACK 79 AUDIO
    TITLE "0:"
    INDEX 01 01:55:73
  TRACK 80 AUDIO
    TITLE "9:cjc079_1326"
    INDEX 01 01:56:45
  TRACK 81 AUDIO
    TITLE "0:"
    INDEX 01 01:58:15
  TRACK 82 AUDIO
    TITLE "10:cjc079_1327"
    INDEX 01 01:59:61
  TRACK 83 AUDIO
    TITLE "9:cjc079_1328"
    INDEX 01 02:01:72
  TRACK 84 AUDIO
    TITLE "0:"
    INDEX 01 02:03:39
  TRACK 85 AUDIO
    TITLE "9:cjc079_1329"
    INDEX 01 02:04:13
  TRACK 86 AUDIO
    TITLE "0:"
    INDEX 01 02:05:58
  TRACK 87 AUDIO
    TITLE "10:cjc079_1330"
    INDEX 01 02:07:31
  TRACK 88 AUDIO
    TITLE "9:cjc079_1331"
    INDEX 01 02:09:46
  TRACK 89 AUDIO
    TITLE "0:"
    INDEX 01 02:11:02
  TRACK 90 AUDIO
    TITLE "9:cjc079_1332"
    INDEX 01 02:11:51
  TRACK 91 AUDIO
    TITLE "0:"
    INDEX 01 02:13:07
  TRACK 92 AUDIO
    TITLE "10:cjc079_1333"
    INDEX 01 02:14:57
  TRACK 93 AUDIO
    TITLE "9:cjc079_1334"
    INDEX 01 02:16:68
  TRACK 94 AUDIO
    TITLE "0:"
    INDEX 01 02:18:19
  TRACK 95 AUDIO
    TITLE "9:cjc079_1335"
    INDEX 01 02:18:66
  TRACK 96 AUDIO
    TITLE "0:"
    INDEX 01 02:20:18
  TRACK 97 AUDIO
    TITLE "10:cjc079_1336"
    INDEX 01 02:21:67
  TRACK 98 AUDIO
    TITLE "9:cjc079_1337"
    INDEX 01 02:24:04
  TRACK 99 AUDIO
    TITLE "0:"
    INDEX 01 02:25:31
  TRACK 100 AUDIO
    TITLE "9:cjc079_1338"
    INDEX 01 02:25:72
  TRACK 101 AUDIO
    TITLE "0:"
    INDEX 01 02:27:26
  TRACK 102 AUDIO
    TITLE "10:cjc079_1339"
    INDEX 01 02:28:71
  TRACK 103 AUDIO
    TITLE "9:cjc079_1340"
    INDEX 01 02:31:10
  TRACK 104 AUDIO
    TITLE "0:"
    INDEX 01 02:32:47
  TRACK 105 AUDIO
    TITLE "9:cjc079_1341"
    INDEX 01 02:33:21
  TRACK 106 AUDIO
    TITLE "0:"
    INDEX 01 02:34:58
  TRACK 107 AUDIO
    TITLE "10:cjc079_1342"
    INDEX 01 02:36:29
  TRACK 108 AUDIO
    TITLE "9:cjc079_1343"
    INDEX 01 02:38:48
  TRACK 109 AUDIO
    TITLE "0:"
    INDEX 01 02:40:01
  TRACK 110 AUDIO
    TITLE "9:cjc079_1344"
    INDEX 01 02:40:45
  TRACK 111 AUDIO
    TITLE "0:"
    INDEX 01 02:42:00
  TRACK 112 AUDIO
    TITLE "10:cjc079_1345"
    INDEX 01 02:43:43
  TRACK 113 AUDIO
    TITLE "9:cjc079_1346"
    INDEX 01 02:45:65
  TRACK 114 AUDIO
    TITLE "0:"
    INDEX 01 02:47:43
  TRACK 115 AUDIO
    TITLE "9:cjc079_1347"
    INDEX 01 02:48:13
  TRACK 116 AUDIO
    TITLE "0:"
    INDEX 01 02:49:67
  TRACK 117 AUDIO
    TITLE "10:cjc079_1348"
    INDEX 01 02:51:39
  TRACK 118 AUDIO
    TITLE "9:cjc079_1349"
    INDEX 01 02:53:28
  TRACK 119 AUDIO
    TITLE "0:"
    INDEX 01 02:54:70
  TRACK 120 AUDIO
    TITLE "9:cjc079_1350"
    INDEX 01 02:55:40
  TRACK 121 AUDIO
    TITLE "0:"
    INDEX 01 02:57:08
  TRACK 122 AUDIO
    TITLE "10:cjc079_1351"
    INDEX 01 02:58:58
  TRACK 123 AUDIO
    TITLE "9:cjc079_1352"
    INDEX 01 03:00:71
  TRACK 124 AUDIO
    TITLE "0:"
    INDEX 01 03:02:23
  TRACK 125 AUDIO
    TITLE "9:cjc079_1353"
    INDEX 01 03:02:72
  TRACK 126 AUDIO
    TITLE "0:"
    INDEX 01 03:04:24
  TRACK 127 AUDIO
    TITLE "10:cjc079_1354"
    INDEX 01 03:05:70
  TRACK 128 AUDIO
    TITLE "9:cjc079_1355"
    INDEX 01 03:07:71
  TRACK 129 AUDIO
    TITLE "0:"
    INDEX 01 03:09:38
  TRACK 130 AUDIO
    TITLE "9:cjc079_1356"
    INDEX 01 03:10:10
  TRACK 131 AUDIO
    TITLE "0:"
    INDEX 01 03:11:55
  TRACK 132 AUDIO
    TITLE "10:cjc079_1357"
    INDEX 01 03:13:28
  TRACK 133 AUDIO
    TITLE "9:cjc079_1358"
    INDEX 01 03:15:37
  TRACK 134 AUDIO
    TITLE "0:"
    INDEX 01 03:16:72
  TRACK 135 AUDIO
    TITLE "9:cjc079_1359"
    INDEX 01 03:17:40
  TRACK 136 AUDIO
    TITLE "0:"
    INDEX 01 03:19:00
  TRACK 137 AUDIO
    TITLE "10:cjc079_1360"
    INDEX 01 03:20:44
  TRACK 138 AUDIO
    TITLE "9:cjc079_1361"
    INDEX 01 03:22:49
  TRACK 139 AUDIO
    TITLE "0:"
    INDEX 01 03:24:14
  TRACK 140 AUDIO
    TITLE "9:cjc079_1362"
    INDEX 01 03:24:61
  TRACK 141 AUDIO
    TITLE "0:"
    INDEX 01 03:26:27
  TRACK 142 AUDIO
    TITLE "10:cjc079_1363"
    INDEX 01 03:28:00
  TRACK 143 AUDIO
    TITLE "9:cjc079_1364"
    INDEX 01 03:29:74
  TRACK 144 AUDIO
    TITLE "0:"
    INDEX 01 03:31:34
  TRACK 145 AUDIO
    TITLE "9:cjc079_1365"
    INDEX 01 03:32:06
  TRACK 146 AUDIO
    TITLE "0:"
    INDEX 01 03:33:41
  TRACK 147 AUDIO
    TITLE "10:cjc079_1366"
    INDEX 01 03:35:16
  TRACK 148 AUDIO
    TITLE "9:cjc079_1367"
    INDEX 01 03:37:33
  TRACK 149 AUDIO
    TITLE "0:"
    INDEX 01 03:38:64
  TRACK 150 AUDIO
    TITLE "9:cjc079_1368"
    INDEX 01 03:39:39
  TRACK 151 AUDIO
    TITLE "0:"
    INDEX 01 03:40:72
  TRACK 152 AUDIO
    TITLE "10:cjc079_1369"
    INDEX 01 03:42:48
  TRACK 153 AUDIO
    TITLE "9:cjc079_1370"
    INDEX 01 03:44:62
  TRACK 154 AUDIO
    TITLE "0:"
    INDEX 01 03:46:30
  TRACK 155 AUDIO
    TITLE "9:cjc079_1371"
    INDEX 01 03:46:71
  TRACK 156 AUDIO
    TITLE "0:"
    INDEX 01 03:48:38
  TRACK 157 AUDIO
    TITLE "10:cjc079_1372"
    INDEX 01 03:50:06
  TRACK 158 AUDIO
    TITLE "9:cjc079_1373"
    INDEX 01 03:52:24
  TRACK 159 AUDIO
    TITLE "0:"
    INDEX 01 03:53:59
  TRACK 160 AUDIO
    TITLE "9:cjc079_1374"
    INDEX 01 03:54:27
  TRACK 161 AUDIO
    TITLE "0:"
    INDEX 01 03:55:64
